<svg xmlns="http://www.w3.org/2000/svg" width="50" height="42" viewBox="0 0 50 42"><g><g><path d="M3.448 5.25h3.448V0l13.793.11-.006 5.17 25.868-.03c1.904 0 3.448 1.567 3.448 3.5V38.5c0 1.933-1.544 3.5-3.448 3.5H3.448c-1.905 0-3.449-1.567-3.449-3.5V8.75c0-1.933 1.544-3.5 3.449-3.5zm6.896 3.5h6.897V3.5h-6.897zm28.448 4.411c0 1.933 1.544 3.5 3.449 3.5 1.904 0 3.448-1.567 3.448-3.5s-1.544-3.5-3.448-3.5c-1.905 0-3.449 1.567-3.449 3.5zM6.896 24.427c0 6.765 5.403 12.25 12.069 12.25 6.665 0 12.069-5.485 12.069-12.25 0-6.766-5.404-12.25-12.07-12.25-6.665 0-12.068 5.484-12.068 12.25zm12.07-7.583c4.284 0 7.758 3.525 7.758 7.875 0 4.349-3.474 7.874-7.758 7.874-4.285 0-7.76-3.525-7.76-7.874 0-4.35 3.475-7.875 7.76-7.875z"/></g></g></svg>