<svg xmlns="http://www.w3.org/2000/svg" width="50" height="43" viewBox="0 0 50 43"><g><g><path d="M3.57 0h42.858a3.578 3.578 0 0 1 3.571 3.583v35.833C50 41.396 48.4 43 46.428 43H3.57a3.577 3.577 0 0 1-3.572-3.584V3.583A3.577 3.577 0 0 1 3.571 0zM4 39h42V9H4zM21 6h25V3H21zM4.464 4.479c0 .99.799 1.792 1.785 1.792.986 0 1.786-.803 1.786-1.792 0-.99-.8-1.792-1.786-1.792S4.464 3.49 4.464 4.48zm5.357 0c0 .99.8 1.792 1.786 1.792s1.785-.803 1.785-1.792c0-.99-.8-1.792-1.785-1.792-.987 0-1.786.802-1.786 1.792zm5.468 0c0 .99.8 1.792 1.786 1.792s1.786-.803 1.786-1.792c0-.99-.8-1.792-1.786-1.792S15.29 3.49 15.29 4.48z"/></g></g></svg>