<svg xmlns="http://www.w3.org/2000/svg" width="34" height="34" viewBox="0 0 34 34"><g><g><path  d="M34 17.132C34 26.447 26.511 34 17.274 34 8.037 34 .55 26.447.55 17.132.549 7.815 8.037.264 17.274.264 26.511.264 34 7.815 34 17.132zm-4.181 0c0-6.988-5.617-12.651-12.545-12.651S4.73 10.144 4.73 17.13s5.616 12.652 12.544 12.652c6.928 0 12.545-5.665 12.545-12.651zm-5.348 1.492a7.496 7.496 0 0 1-1.105 2.651 7.473 7.473 0 0 1-1.983 1.998 7.299 7.299 0 0 1-8.218 0 7.492 7.492 0 0 1-1.086-.902 7.626 7.626 0 0 1-.896-1.096 7.397 7.397 0 0 1-1.254-4.144 7.462 7.462 0 0 1 1.254-4.143c.263-.392.565-.76.896-1.095a7.363 7.363 0 0 1 3.715-2.02 7.329 7.329 0 0 1 5.589 1.115 7.5 7.5 0 0 1 1.983 2c.264.397.492.82.677 1.26a7.528 7.528 0 0 1 .577 2.884c0 .502-.05 1.003-.15 1.492zm-3.715 3.618a6.196 6.196 0 0 0 2.543-3.861c.018-.094.027-.19.042-.284a5.992 5.992 0 0 0-.235-.064 8.918 8.918 0 0 0-.693-.143h-.004a8.936 8.936 0 0 0-2.852-.026 28.295 28.295 0 0 1 1.199 4.378zm-5.876.604a6.123 6.123 0 0 0 2.394.487 6.079 6.079 0 0 0 2.393-.488c.012-.004.023-.01.035-.016a26.905 26.905 0 0 0-1.32-4.675l-.04.013c-.374.131-.717.28-1.042.434-.046.022-.095.043-.14.066a9.79 9.79 0 0 0-.84.468l-.143.091a9.28 9.28 0 0 0-.696.495c-.034.026-.064.052-.097.079a8.085 8.085 0 0 0-1.064 1.02l-.06.068a7.512 7.512 0 0 0-.645.88 4.852 4.852 0 0 0-.138.235 6 6 0 0 0 .359.27c.33.224.68.417 1.044.573zm-3.745-5.914c-.002.067-.01.133-.01.2a6.175 6.175 0 0 0 1.05 3.467c.151.223.334.42.511.624.042-.067.105-.163.178-.27l.036-.054a9.49 9.49 0 0 1 .28-.382l.063-.082c.116-.147.244-.304.391-.472l.068-.075c.16-.178.331-.362.526-.55.19-.185.4-.37.623-.555.035-.028.066-.056.1-.084a9.5 9.5 0 0 1 1.659-1.066l.132-.06c.307-.146.626-.282.967-.393.08-.026.161-.046.242-.069a21.426 21.426 0 0 0-.507-1.083c-2.538.765-4.988.888-5.977.902-.141.002-.255.003-.332.002zm3.541-5.415a6.129 6.129 0 0 0-.84.472c-.325.222-.63.476-.909.757a6.155 6.155 0 0 0-1.663 3.081c.065 0 .155 0 .266-.003h.008c.225-.005.538-.016.92-.041h.002a23.98 23.98 0 0 0 3.888-.583h.001c.19-.045.383-.094.577-.146a38.53 38.53 0 0 0-2.25-3.537zm6.036.472a6.118 6.118 0 0 0-4.678-.934c-.052.011-.103.03-.154.041.3.41 1.317 1.832 2.255 3.569.245-.093.475-.192.689-.292l.012-.006c1.506-.712 2.26-1.566 2.492-1.866-.2-.177-.396-.362-.616-.512zm2.587 3.892a6.26 6.26 0 0 0-.926-2.217c-.102-.153-.233-.284-.35-.427-.251.318-1.08 1.226-2.65 2.024l-.05.024a10.35 10.35 0 0 1-.704.322c.148.305.291.614.423.927.047.111.086.218.13.328.224-.028.446-.047.666-.061l.111-.006c.189-.01.373-.016.556-.018l.093-.001c.209 0 .413.004.61.012l.042.002a15.771 15.771 0 0 1 1.532.145l.091.014c.096.015.182.028.259.042l.064.01c.09.016.166.03.223.042a6.452 6.452 0 0 0-.12-1.162z"/></g></g></svg>