<svg xmlns="http://www.w3.org/2000/svg" width="35" height="34" viewBox="0 0 35 34"><g><g><path  d="M34.372 17.132c0 9.315-7.49 16.868-16.726 16.868C8.408 34 .92 26.447.92 17.132.92 7.815 8.408.264 17.646.264c9.236 0 16.726 7.551 16.726 16.868zm-4.182 0c0-6.988-5.617-12.651-12.544-12.651C10.718 4.48 5.1 10.144 5.1 17.13s5.617 12.652 12.545 12.652c6.927 0 12.544-5.665 12.544-12.651zm-7.105-1.99c0-2.414-2.028-4.663-5.11-4.663-3.835 0-5.769 2.773-5.769 5.085 0 1.4.526 2.646 1.653 3.11.185.076.35.003.404-.203.038-.143.126-.504.165-.654.054-.204.033-.276-.116-.454-.325-.386-.533-.887-.533-1.596 0-2.057 1.527-3.899 3.974-3.899 2.168 0 3.36 1.335 3.36 3.12 0 2.347-1.03 4.328-2.56 4.328-.844 0-1.477-.704-1.274-1.568.242-1.032.713-2.144.713-2.889 0-.666-.355-1.222-1.089-1.222-.863 0-1.557.9-1.557 2.107 0 .769.258 1.288.258 1.288l-1.038 4.436c-.309 1.317-.047 2.931-.025 3.094.013.097.136.12.193.047.079-.106 1.107-1.385 1.457-2.665.098-.362.567-2.237.567-2.237.28.539 1.1 1.014 1.972 1.014 2.595 0 4.355-2.385 4.355-5.579"/></g></g></svg>