<svg xmlns="http://www.w3.org/2000/svg" width="34" height="34" viewBox="0 0 34 34"><g><g><path d="M33.451 16.868c0 9.316-7.489 16.869-16.725 16.869C7.488 33.737 0 26.184 0 16.868 0 7.552 7.488 0 16.726 0 25.962 0 33.45 7.552 33.45 16.868zm-4.18 0c0-6.987-5.618-12.65-12.545-12.65-6.928 0-12.545 5.663-12.545 12.65S9.798 29.52 16.726 29.52c6.927 0 12.544-5.665 12.544-12.652zm-7.405-2.222c.005.116.007.233.007.35 0 3.581-2.702 7.71-7.645 7.71a7.56 7.56 0 0 1-4.119-1.217 5.36 5.36 0 0 0 3.978-1.122 2.693 2.693 0 0 1-2.51-1.882 2.68 2.68 0 0 0 1.214-.047 2.706 2.706 0 0 1-2.155-2.657v-.034c.362.203.776.325 1.217.339a2.715 2.715 0 0 1-1.196-2.255c0-.497.133-.962.364-1.363A7.606 7.606 0 0 0 16.56 15.3a2.75 2.75 0 0 1-.069-.617c0-1.496 1.203-2.71 2.687-2.71.773 0 1.471.33 1.961.856a5.342 5.342 0 0 0 1.706-.657 2.715 2.715 0 0 1-1.18 1.499 5.335 5.335 0 0 0 1.542-.427 5.486 5.486 0 0 1-1.34 1.403z"/></g></g></svg>